{"title":"Tori Black - Bubble Butt Tryouts","uid":10567047,"size":730880865,"categoryP":"porn","categoryS":"movie_clips","magnet":"?xt=urn:btih:213d8fa515082d72aa819ff41a148c7e4c6ccb9a&amp;dn=Tori+Black+-+Bubble+Butt+Tryouts&amp;tr=udp%3A%2F%2Ftracker.openbittorrent.com%3A80&amp;tr=udp%3A%2F%2Fopen.demonii.com%3A1337&amp;tr=udp%3A%2F%2Ftracker.coppersurfer.tk%3A6969&amp;tr=udp%3A%2F%2Fexodus.desync.com%3A6969","seeders":10,"leechers":3,"uploader":"athklym","files":-1,"time":1405535723,"description":" &lt;a href=&quot;http://bayimg.com/DaPkGAAfE&quot; rel=&quot;nofollow&quot; target=&quot;_NEW&quot;&gt;http://bayimg.com/DaPkGAAfE&lt;/a&gt;\nTori_Black_Bubble_Butt_Tryouts.wmv\nFormat : Windows Media\nFile size : 697 MiB\nDuration : 31mn 33s\nOverall bit rate mode : Variable\nOverall bit rate : 3 088 Kbps\nMaximum Overall bit rate : 3 098 Kbps\nEncoded date : UTC 2009-08-23 12:30:54.608\n\nVideo\nID : 2\nFormat : VC-1\nFormat profile : MP@HL\nCodec ID : WMV3\nCodec ID/Info : Windows Media Video 9\nCodec ID/Hint : WMV3\nDescription of the codec : Windows Media Video 9 - Professional\nDuration : 31mn 33s\nBit rate mode : Variable\nBit rate : 2 975 Kbps\nWidth : 1 440 pixels\nHeight : 1 080 pixels\nDisplay aspect ratio : 4:3\nFrame rate : 29.970 fps\nColor space : YUV\nChroma subsampling : 4:2:0\nBit depth : 8 bits\nScan type : Progressive\nCompression mode : Lossy\nBits/(Pixel*Frame) : 0.064\nStream size : 672 MiB (96%)\n\nAudio\nID : 1\nFormat : WMA\nFormat version : Version 2\nCodec ID : 161\nCodec ID/Info : Windows Media Audio\nDescription of the codec : Windows Media Audio 9.2 - 96 kbps, 44 kHz, stereo 1-pass CBR\nDuration : 31mn 33s\nBit rate mode : Constant\nBit rate : 96.0 Kbps\nChannel(s) : 2 channels\nSampling rate : 44.1 KHz\nBit depth : 16 bits\nStream size : 21.7 MiB (3%)","torrent":{"xt":"urn:btih:213d8fa515082d72aa819ff41a148c7e4c6ccb9a","amp;dn":"Tori+Black+-+Bubble+Butt+Tryouts","amp;tr":["udp%3A%2F%2Ftracker.openbittorrent.com%3A80","udp%3A%2F%2Fopen.demonii.com%3A1337","udp%3A%2F%2Ftracker.coppersurfer.tk%3A6969","udp%3A%2F%2Fexodus.desync.com%3A6969"],"infoHash":"213d8fa515082d72aa819ff41a148c7e4c6ccb9a","infoHashBuffer":{"type":"Buffer","data":[33,61,143,165,21,8,45,114,170,129,159,244,26,20,140,126,76,108,203,154]},"announce":[],"urlList":[]}}